<?xml version="1.0" standalone="no"?>
<!DOCTYPE svg PUBLIC "-//W3C//DTD SVG 20010904//EN"
        "http://www.w3.org/TR/2001/REC-SVG-20010904/DTD/svg10.dtd">
<svg version="1.0" xmlns="http://www.w3.org/2000/svg"
     height="100%" viewBox="0 0 1024 1024"
     preserveAspectRatio="xMidYMid meet">

    <g>
        <g transform="translate(0.000000,511.000000) scale(0.100000,-0.100000)">
            <path fill="var(--prod-menu-icon)"
                  d="M5291.6,3759.9C5114.6,3701.6,558,1441.7,434.9,1351c-116.6-84.2-231-246.1-293.6-410.1c-58.3-153.3-54-455.5,6.5-604.4c25.9-58.3,379.9-783.5,787.9-1608.1c658.3-1325.3,755.5-1513.1,848.3-1603.8c187.8-187.8,483.5-295.7,733.9-263.3c64.8,6.5,118.7,21.6,118.7,30.2c0,8.6-23.8,62.6-49.6,123c-114.4,239.6-112.2,192.1-112.2,2091.6c0,1767.8,0,1770,47.5,1921.1c66.9,211.5,187.8,407.9,351.8,572c164,161.9,319.5,259,543.9,341l157.6,58.3l1711.7,6.5c939,2.1,1709.6,8.6,1709.6,12.9c0,36.7-682.1,1383.6-731.7,1448.4C6036.3,3749.1,5630.5,3872.2,5291.6,3759.9z"/>
            <path
                    fill="var(--prod-menu-icon)"
                    d="M3705.1,1417.9c-250.4-60.4-498.6-265.5-610.9-502.9l-58.3-125.2v-1856.3v-1856.3l58.3-125.2c71.2-153.3,241.7-334.6,386.4-414.4c226.6-123,107.9-118.7,2976.6-118.7c2888.1,0,2769.4-4.3,3004.7,123c144.6,77.7,287.1,237.4,369.1,412.3l69.1,144.6v1834.7V768.2l-69.1,144.6c-82,174.8-224.5,334.6-369.1,412.3c-235.3,127.4-116.6,123-3004.7,120.9C4460.6,1446,3787.1,1437.4,3705.1,1417.9z M9263.2,845.9c101.5-51.8,172.7-179.2,172.7-308.7V433.7H6498.2H3558.3l12.9,123c15.1,136,56.1,207.2,166.2,282.8l71.2,47.5h2689.5C9075.4,887,9192,884.8,9263.2,845.9z M9435.9-1588.9v-1182.9l-49.6-84.2c-25.9-45.3-82-101.5-123-123c-71.2-38.8-187.8-41-2765-41H3808.7l-71.2,49.6c-38.9,25.9-92.8,75.6-116.6,107.9c-45.3,60.4-45.3,82-51.8,1230.4c-2.2,641.1,0,1180.7,4.3,1195.8c8.6,23.7,546.1,28.1,2937.7,28.1h2924.8V-1588.9z"/>
            <path
                    fill="var(--prod-menu-icon)"
                    d="M4341.8-1528.4c-164-54-319.5-192.1-379.9-336.7c-19.4-47.5-36.7-144.6-36.7-215.8c-2.2-330.3,248.2-580.7,578.5-578.5c151.1,2.1,252.5,38.8,360.5,131.7l75.5,66.9l47.5-49.6c125.2-131.7,431.7-190,608.7-114.4c107.9,43.2,250.4,177,306.5,282.8c64.8,125.2,64.8,375.6,0,500.8c-120.9,228.8-274.1,321.6-524.5,321.6c-174.8,0-261.2-32.4-371.3-136l-60.4-56.1l-47.5,45.3C4769.2-1545.7,4492.9-1478.8,4341.8-1528.4z"/>
        </g>
    </g>
</svg>
