<svg version="1.1" id="Layer_1" xmlns="http://www.w3.org/2000/svg" x="0" y="0" viewBox="0 0 255.8 43.4" xml:space="preserve"><style>.st1{fill:#ed3d23}.st2{fill:#f58a20}.st3{fill:#ef3d23}</style><g id="XMLID_692_"><g id="XMLID_707_"><g id="XMLID_713_"><path id="XMLID_747_" d="M60.2 21.7c0-2.3.4-4.6 1.2-6.8 1.7-4.5 5-8.2 9.4-10.3C73.3 3.6 76 3 78.7 3c3.1-.1 6.2.7 8.9 2.3 2.4 1.4 4.3 3.4 5.6 5.9l-5.6 3.9c-.4-1-1.1-1.9-1.8-2.7-.7-.7-1.4-1.3-2.3-1.7-.8-.4-1.6-.7-2.5-.9-.8-.2-1.7-.3-2.6-.3-1.7-.1-3.3.3-4.8 1.1-1.3.7-2.5 1.7-3.4 2.9s-1.6 2.6-2 4-.7 3-.7 4.5c0 1.6.3 3.2.8 4.8.5 1.5 1.3 2.8 2.2 4 1 1.2 2.1 2.1 3.5 2.8s2.9 1.1 4.5 1.1c.9 0 1.8-.1 2.6-.3.9-.2 1.8-.6 2.6-1 .8-.5 1.6-1.1 2.2-1.8.7-.8 1.3-1.6 1.7-2.6l6 3.4c-.6 1.4-1.5 2.7-2.6 3.7-1.1 1.1-2.4 2-3.7 2.7-1.4.7-2.9 1.3-4.5 1.7-1.5.4-3.1.6-4.6.6-2.5 0-5-.6-7.3-1.7-2.2-1.1-4.1-2.6-5.7-4.4-1.6-1.8-2.9-3.9-3.7-6.1-.8-2.4-1.3-4.8-1.3-7.2zM110 41.2c-2.1 0-4.1-.4-6.1-1.2-3.4-1.4-6.1-4.2-7.4-7.7s-1.3-7.4 0-10.9 4-6.3 7.4-7.7c1.9-.8 4-1.2 6.1-1.2s4.1.4 6 1.2c1.7.7 3.2 1.8 4.5 3.1 1.2 1.3 2.2 2.9 2.9 4.6 1.3 3.5 1.3 7.4 0 10.9-.7 1.7-1.6 3.2-2.9 4.6-1.3 1.3-2.8 2.4-4.5 3.1-1.9.8-3.9 1.2-6 1.2zm-7.2-14.3c0 1.1.2 2.3.5 3.4.3 1 .9 1.8 1.5 2.6.6.7 1.4 1.3 2.3 1.7s1.9.6 2.8.6c2 0 3.8-.8 5.1-2.3.7-.8 1.2-1.7 1.5-2.6.4-1.1.6-2.2.5-3.4 0-1.1-.2-2.3-.5-3.3s-.9-1.9-1.5-2.6c-1.3-1.5-3.2-2.3-5.1-2.3-1 0-2 .2-2.8.6-.9.4-1.7 1-2.3 1.7-.7.8-1.2 1.7-1.5 2.6-.4 1.1-.6 2.2-.5 3.3zm23.1-17.7v-7h7.1v7h-7.1zm0 31.5V13.1h7.1v27.6h-7.1zm34.5 0h-7.1V25.2c.1-1.7-.3-3.4-1.2-4.9-.8-1-2-1.6-3.2-1.5-.7 0-1.5.2-2.2.4-.8.3-1.5.7-2.1 1.2-.7.5-1.3 1.1-1.8 1.8s-.9 1.5-1.2 2.3v16.1h-7.1V13.1h6.4v5.1c1-1.8 2.6-3.2 4.4-4.1 2-1 4.3-1.5 6.5-1.5 1.5-.1 2.9.3 4.2.9 1 .6 1.9 1.4 2.5 2.5s1 2.3 1.2 3.5c.2 1.3.3 2.6.3 4l.4 17.2z" fill="#fff"/><path id="XMLID_725_" class="st1" d="M162.2 40.7V3.3h14.4c2.8-.1 5.6.4 8.2 1.5 4.5 1.8 7.9 5.4 9.5 9.9.8 2.3 1.2 4.8 1.2 7.3 0 2.6-.4 5.3-1.3 7.7-.8 2.2-2.1 4.2-3.8 5.9s-3.7 3-6 3.8c-2.5.9-5.1 1.4-7.8 1.3h-14.4zm22.9-18.8c0-1.3-.2-2.7-.6-4-.3-1.1-.9-2.2-1.7-3.1-.7-.9-1.6-1.5-2.7-2s-2.3-.7-3.5-.7h-4.1v19.5h4.1c1.2 0 2.5-.2 3.6-.7 1-.5 1.9-1.2 2.6-2.1.7-.9 1.3-2 1.6-3.1.5-1.1.7-2.5.7-3.8z"/><path id="XMLID_720_" class="st1" d="M188.6 21.7c0-4.7 1.8-9.3 5-12.7 1.7-1.8 3.8-3.3 6-4.3 2.5-1.1 5.3-1.7 8.1-1.6 3.3-.1 6.5.7 9.4 2.2 2.5 1.4 4.6 3.4 5.9 5.9l-7.9 5.6c-.3-.8-.8-1.6-1.4-2.3-.6-.6-1.2-1-1.9-1.4-.7-.3-1.4-.6-2.2-.7-.7-.1-1.4-.2-2.2-.2-1.3 0-2.6.3-3.8.9-1 .6-1.9 1.3-2.6 2.3-.7 1-1.2 2-1.5 3.2-.3 1.1-.5 2.3-.5 3.5 0 1.3.2 2.5.6 3.7.4 1.1.9 2.2 1.7 3.2.7.9 1.7 1.6 2.7 2.2 1.1.6 2.4.8 3.6.8.7 0 1.4-.1 2.2-.2.8-.2 1.5-.4 2.2-.8s1.3-.9 1.8-1.4c.6-.6 1-1.4 1.3-2.2l8.4 5c-.6 1.4-1.4 2.7-2.5 3.7-1.2 1.1-2.5 2-3.9 2.7-1.5.7-3.1 1.3-4.7 1.7-1.6.4-3.2.6-4.9.6-2.6 0-5.2-.5-7.6-1.7-2.2-1.1-4.3-2.6-6-4.4-1.7-1.8-3-3.9-3.9-6.2-.9-2.4-1.4-4.7-1.4-7.1z"/><path id="XMLID_719_" class="st1" d="M227.9 3.3l6.8 11.8 6.8-11.8h11.1l-12.5 19 12.1 18.5h-11.1l-6.4-11.3-6.4 11.3h-11.1l12.1-18.5-12.5-19h11.1z"/></g><path class="st2" d="M33.7 26.9c-1.3-.9-2-2.3-2-3.8l-.1-5.7c.1 1.1.7 2 1.6 2.6l15 8.6c4.7 2.9 8.3 7.3 10.3 12.5L33.7 26.9z"/><path class="st3" d="M45.6 11.1c-1.1 2.7-3 5.2-5.7 6.5l-4.5-2.5c-2.1-1.2-1.3-4 .3-4.9l9-5.2c.5-.3 1.1-.1 1.4.4.1.1.1.3.1.4.2 1.9.1 3.6-.6 5.3z"/><path class="st2" d="M58.4 41.2c-2-5.1-5.7-9.5-10.4-12.4-.5-.4-14.6-8.5-15-8.6-.9-.5-1.4-1.5-1.5-2.5v-3.3c0-1 .5-1.9 1.4-2.5l2.8-1.8c-1.6.9-2 3.9-.3 4.9l11.2 6.3c7.1 4.3 11.6 11.8 11.8 19.9zM28 17.2c1.3.9 2 2.3 2 3.9l.1 5.6c-.1-1-.7-2-1.6-2.6l-15-8.6C9 12.4 5.4 8.1 3.3 2.9L28 17.2z"/><path class="st3" d="M16.1 33c1.1-2.7 3-5.1 5.6-6.4l4.4 2.6c1.8 1 1.4 3.8-.2 4.8l-9.1 5.1c-.5.3-1.1.1-1.4-.4-.1-.1-.1-.3-.1-.4-.1-1.9.2-3.6.8-5.3z"/><path class="st2" d="M3.3 2.9C5.4 8 9 12.4 13.6 15.3c.5.4 14.6 8.5 15 8.6.9.5 1.4 1.5 1.5 2.5v3.3c0 1-.5 1.9-1.4 2.5L25.8 34c1.6-.9 2.1-3.8.3-4.8L15 22.7c-4.8-2.8-8.4-7.2-10.3-12.5-.8-2.3-1.3-4.8-1.4-7.3z"/></g></g></svg>