<svg version="1.0" xmlns="http://www.w3.org/2000/svg"
     height="100%" viewBox="0 0 383.25 383.21"
     preserveAspectRatio="xMidYMid meet">
    <defs>
        <style>.cls-1{fill:var(--prod-menu-icon);}</style>
    </defs>
    <g id="Layer_2" data-name="Layer 2">
        <g id="Layer_1-2" data-name="Layer 1">
            <path class="cls-1"
                  d="M318.88,383.21c-4.65-1.3-9.46-2.2-13.93-3.95a57.32,57.32,0,0,1-25.26-87.56c.51-.7,1-1.45,1.25-1.88l-43.25-43.26c-5,3.12-10,7.09-15.61,9.47-6.91,2.92-14.35,4.65-21.64,6.6-2,.54-3,1-2.94,3.26.15,5.11.12,10.23,0,15.35,0,2,.61,2.78,2.61,3.22,19.19,4.19,32.29,19.16,34,38.62,1.81,21.27-14.46,41.39-36,44.43-22.91,3.25-43.42-11.36-47.81-34-4.3-22.21,10.35-44.39,32.51-48.92,2.65-.54,3.53-1.43,3.43-4.08-.19-4.86.08-9.74-.16-14.59-.05-1.06-1.31-2.87-2.17-3-14.33-1.65-26.71-7.58-37.67-16.75a3.89,3.89,0,0,0-.94-.36l-32.41,32.5c-.88.88-1.75,1.78-2.66,2.64-3,2.8-6.19,3-8.6.64s-2.25-5.71.6-8.59q12.66-12.76,25.4-25.42c3.35-3.34,6.72-6.66,10.26-10.16-6.18-8.19-10.79-16.94-13-26.79a63.1,63.1,0,0,1-1.34-7.71c-.22-2.11-.94-3-3.24-3-14.72.08-29.44.1-44.16,0-2.31,0-2.83,1.27-3.6,2.91C68.75,211,61,215.38,52,214.73c-7.66-.54-14.9-6.33-17.41-13.91a20.44,20.44,0,0,1,37.33-16.24c.66,1.2,1.19,2.47,1.95,4.06H94.87c8.48,0,17,0,25.45,0,2,0,2.92-.48,3.15-2.6a66.53,66.53,0,0,1,15.94-36.39c.24-.28.41-.62.31-.46l-46.6-46.57c-28.43,22-64.37,11.82-81.1-10a57.64,57.64,0,0,1,4.4-75.53C36.31-3.2,68.28-5.62,91.28,10.88c21.79,15.64,34.56,52.27,10.83,83.06.4.45.8.93,1.23,1.37,15,15,30,30,45.24,45.3a71.6,71.6,0,0,1,37.62-15V109.12c0-5.87-.1-11.73,0-17.59.06-2.44-.44-3.66-3.14-4.42a30,30,0,0,1-18.52-14.72c-2.26-4-1.64-7.32,1.61-9,3-1.62,5.94-.43,8.25,3.42,4.47,7.47,11.1,11.15,19.7,10.18,7.93-.9,13.53-5.44,16.27-13.07a19.72,19.72,0,0,0-34.85-17.73c-.29.41-.54.84-.8,1.27-2.79,4.57-5.71,5.79-9,3.72-3.1-2-3.38-5.18-.83-9.54a31.15,31.15,0,0,1,58,14.48c.51,13.79-8.05,26.53-21.21,30.58-3.74,1.15-4.35,2.83-4.28,6.25.21,10.83.07,21.66.07,32.67,13.83,1.47,26.1,6.17,36.43,14.28l57.81-57.79c-7.43-10.95-10.11-23.55-5.89-37.21a40.87,40.87,0,0,1,17.82-23.21c18.12-11.36,40.79-7.83,54.78,8.45,13.42,15.61,13.28,39.13-.31,54.91-12.78,14.85-36.63,20.83-57,6.53L243.72,149a69.68,69.68,0,0,1,16.86,39.68h23.15a15.35,15.35,0,0,1,2.25,0c4.23.66,6.29-.53,7.7-5.25,4.81-16.17,21.46-25.83,38.46-23.13,16,2.55,28.51,17.21,28.62,33.59a34.61,34.61,0,0,1-68.05,9.31c-.33-1.22-1.71-3.05-2.64-3.07-9.71-.23-19.42-.14-29.43-.14-1.49,14-6.32,26.5-14.82,37.23l43.74,43.65c3.36-2,6.93-4.47,10.76-6.42,34.14-17.37,76.12,4.09,82.18,41.93a20,20,0,0,0,.75,2.47v14.23c-.26.8-.51,1.61-.79,2.41-2.31,6.4-4.36,12.92-7,19.16-1.72,4-5.14,5-8.22,3.24s-3.69-5-1.57-8.76a47.54,47.54,0,0,0,5.81-30.23c-3.17-24.12-27.88-42.74-51.89-38.8-24.26,4-40.28,23.39-39.68,48,.64,26,25.61,47,51.37,43.44a52.3,52.3,0,0,0,19.88-7.1c3.17-1.89,6.44-.95,8.08,1.92s.83,5.77-2.27,7.68a49.83,49.83,0,0,1-8.93,4.64c-4.86,1.78-9.92,3-14.89,4.52ZM249.34,194.73a57.59,57.59,0,1,0-115.17-.53c-.18,31.66,26,57.89,57.75,57.8A57.62,57.62,0,0,0,249.34,194.73ZM57.21,103.37a46.1,46.1,0,1,0,.18-92.2c-25.22,0-46.2,21-46.17,46.27A46.24,46.24,0,0,0,57.21,103.37Zm299.9-45.75A30.86,30.86,0,1,0,326,88.31,30.93,30.93,0,0,0,357.11,57.62ZM222.7,326.22c.36-16.6-13.21-30.91-29.72-31.36-17.13-.45-31.72,13.09-32.07,29.77a31,31,0,0,0,30.48,32.1C208.17,357.17,222.32,343.39,222.7,326.22Zm103.66-155a23,23,0,0,0-23.27,22.79,23.28,23.28,0,0,0,23,23.58,23.58,23.58,0,0,0,23.41-23.32A23.26,23.26,0,0,0,326.36,171.27ZM63,194.32a8.78,8.78,0,0,0-9-8.91,8.9,8.9,0,0,0-9.09,8.86,9.31,9.31,0,0,0,9.24,9.26A9.17,9.17,0,0,0,63,194.32Z"/>
            <path class="cls-1"
                  d="M57.65,297.88c4,1.2,8.13,2.1,12,3.71,2.25,1,3.47.74,5.06-1,3.31-3.56,6.81-6.93,10.29-10.33,3-3,6.48-3.21,8.85-.71s2,5.72-.81,8.61c-3.39,3.47-6.78,7-10.33,10.28-1.72,1.59-2,2.81-.85,5a27.62,27.62,0,0,1-23.44,40.35c-13.52.63-26.25-9.84-28.29-23.27-2.15-14.07,6.76-27.75,20.32-31.1,2.28-.56,4.65-.75,7-1.11Zm15.9,28.45a16.25,16.25,0,0,0-16.19-16.48A16.49,16.49,0,0,0,41.14,326,16.26,16.26,0,0,0,57.42,342.4,16,16,0,0,0,73.55,326.33Z"/>
            <path class="cls-1"
                  d="M185.61,227c-3.83-1.73-7.42-3.09-10.74-4.94a5.6,5.6,0,1,1,5.6-9.68A18.32,18.32,0,0,0,191.89,215a8.94,8.94,0,0,0,8.6-7.88c.51-3.6-1.41-6.13-5.85-8s-8.75-3.6-12.93-5.77A14.51,14.51,0,0,1,173.38,179c.3-6.71,3.29-12,9.41-15.07,2-1,2.94-2,3.12-4.33a5.17,5.17,0,0,1,5.54-5c3.08,0,5.32,1.71,5.5,5,.11,2.14,1.06,3,2.92,3.61a21.49,21.49,0,0,1,5.26,2.76c3,2.14,3.61,5.09,1.9,7.81s-5,3.5-8.13,1.54-6.26-3.14-9.52-1.61a10.1,10.1,0,0,0-4.41,4.82c-1,2.36.53,4.3,2.83,5.33,3.62,1.63,7.23,3.32,10.95,4.73,7.53,2.86,12.47,7.9,13,16.15.57,9-3.64,15.52-11.48,19.77-1.48.8-3.09,1-3.21,3.44-.22,4.33-2.43,6.43-5.78,6.3-3.2-.12-5.08-2.27-5.53-6.32C185.67,227.4,185.6,226.92,185.61,227Z"/>
        </g>
    </g>
</svg>