<?xml version="1.0" standalone="no"?>
<!DOCTYPE svg PUBLIC "-//W3C//DTD SVG 20010904//EN"
 "http://www.w3.org/TR/2001/REC-SVG-20010904/DTD/svg10.dtd">
<svg version="1.0" xmlns="http://www.w3.org/2000/svg"
 height="100%" viewBox="0 0 92.000000 92.000000" 
 preserveAspectRatio="xMidYMid meet">

<g transform="translate(0.000000,92.000000) scale(0.100000,-0.100000)"
fill="var(--prod-menu-icon)" stroke="none">
<path d="M191 889 c-121 -36 -201 -168 -173 -289 15 -64 53 -121 103 -154 147
-98 341 -21 380 152 42 180 -131 342 -310 291z m185 -55 c68 -42 107 -117 102
-196 -12 -168 -191 -261 -334 -172 -68 42 -107 117 -102 196 12 168 191 261
334 172z"/>
<path d="M185 821 c-48 -22 -79 -54 -100 -103 -55 -133 63 -276 210 -253 64 9
139 81 150 143 10 62 -2 114 -37 157 -58 70 -145 92 -223 56z m156 -34 c106
-71 106 -203 0 -274 -46 -31 -116 -31 -162 0 -94 63 -107 180 -27 254 51 48
134 57 189 20z"/>
<path d="M250 768 c0 -7 -14 -21 -30 -30 -49 -28 -30 -98 26 -98 30 0 58 -24
51 -44 -9 -24 -64 -21 -77 4 -13 25 -30 26 -30 2 0 -21 29 -52 48 -52 7 0 12
-7 12 -15 0 -8 5 -15 10 -15 6 0 10 7 10 15 0 8 6 15 13 15 20 0 47 33 47 57
0 25 -30 53 -56 53 -30 0 -58 24 -51 44 9 24 64 21 77 -4 13 -25 30 -26 30 -2
0 21 -29 52 -48 52 -7 0 -12 7 -12 15 0 8 -4 15 -10 15 -5 0 -10 -6 -10 -12z"/>
<path d="M552 772 l-33 -35 34 -35 c20 -20 40 -32 47 -27 8 5 7 12 -6 26 -17
18 -15 19 41 19 53 0 60 -3 96 -39 37 -36 39 -42 39 -100 0 -48 3 -61 15 -61
12 0 15 13 15 56 0 106 -66 174 -169 174 -54 0 -61 5 -34 25 9 7 13 17 9 23
-10 17 -17 14 -54 -26z"/>
<path d="M580 511 c-71 -23 -131 -74 -166 -141 -30 -57 -25 -153 10 -218 119
-215 438 -152 463 92 10 101 -37 191 -127 240 -54 29 -136 42 -180 27z m178
-58 c33 -20 54 -44 75 -83 25 -48 28 -63 24 -118 -9 -113 -83 -189 -196 -199
-157 -15 -275 131 -228 281 43 137 203 195 325 119z"/>
<path d="M575 445 c-71 -25 -125 -105 -125 -185 0 -39 41 -111 82 -144 78 -62
209 -40 265 44 66 101 29 231 -82 281 -48 22 -86 23 -140 4z m153 -42 c46 -34
72 -81 72 -130 0 -91 -54 -152 -141 -161 -60 -6 -100 10 -139 54 -69 79 -41
207 55 250 40 19 119 12 153 -13z"/>
<path d="M600 385 c0 -9 -9 -15 -25 -15 -27 0 -34 -17 -10 -26 11 -5 15 -23
15 -74 0 -51 -4 -69 -15 -74 -22 -8 -18 -26 5 -26 11 0 23 -7 26 -15 8 -21 32
-19 37 3 4 16 5 16 6 0 1 -22 31 -24 31 -3 0 8 8 15 19 15 31 0 40 22 39 95 0
79 -10 105 -38 105 -11 0 -20 7 -20 15 0 21 -28 19 -33 -2 -4 -17 -5 -17 -6 0
-1 21 -31 23 -31 2z m98 -72 c-3 -25 -7 -28 -45 -31 -42 -3 -43 -2 -43 27 0
30 1 31 46 31 44 0 45 -1 42 -27z m2 -88 c0 -23 -4 -25 -45 -25 -41 0 -45 2
-45 25 0 23 4 25 45 25 41 0 45 -2 45 -25z"/>
<path d="M100 344 c0 -105 66 -174 165 -174 47 0 48 0 31 -19 -10 -11 -15 -25
-11 -31 5 -8 20 0 45 25 l37 36 -35 35 c-24 24 -38 32 -45 25 -7 -7 -4 -17 9
-32 18 -21 18 -22 1 -16 -10 4 -35 7 -54 7 -28 0 -44 8 -74 39 -37 36 -39 42
-39 100 0 48 -3 61 -15 61 -12 0 -15 -13 -15 -56z"/>
</g>
</svg>
