<?xml version="1.0" standalone="no"?>
<!DOCTYPE svg PUBLIC "-//W3C//DTD SVG 20010904//EN"
        "http://www.w3.org/TR/2001/REC-SVG-20010904/DTD/svg10.dtd">
<svg version="1.0" xmlns="http://www.w3.org/2000/svg"
     height="100%" viewBox="0 0 382.43 390.16"
     preserveAspectRatio="xMidYMid meet">
    <defs>
        <style>.cls-1{fill:var(--prod-menu-icon);}</style>
    </defs>
    <g id="Layer_2" data-name="Layer 2">
        <g id="Layer_1-2" data-name="Layer 1">
            <path class="cls-1"
                  d="M105.11,390.16c-1.6-1.74-3.59-3.25-4.75-5.25q-27.7-47.7-55.21-95.5c-3.24-5.61-2.42-8.68,3.15-11.9q20.24-11.73,40.52-23.4c5.47-3.14,8.43-2.33,11.61,3.05,1.73,2.93,3.42,5.88,5.27,9.07,1.28-.64,2.4-1.15,3.46-1.76q24.72-14.25,49.42-28.52c6.2-3.58,6.9-6.35,3.26-12.68-1.84-3.18-3.73-6.34-5.53-9.54-7-12.46-3.77-25.3,8.38-32.91,2.24-1.4,4.54-2.69,7.08-4.19L140,121.53c-5.09,2.92-9.89,5.71-14.71,8.45-5.09,2.89-6.93,2.61-10.93-1.62-3.12-3.29-5.42-3.59-9.81-1.15C72.88,144.81,42,163.57,13.71,186.29c-3.24,2.59-6.55,5.94-11.09,2.57-4.28-3.19-2.31-7.2-1.06-11.07,8-24.63,20.37-46.63,38.41-65.32A168.11,168.11,0,0,1,76.91,83.94c6.86-4,7.16-4.58,5.22-12.08-1-3.74.8-6.09,3.77-7.84,5.11-3,10.26-5.95,15.52-9-3.88-8.56-3.7-16.9,3.37-22.87a66.85,66.85,0,0,1,19.56-11.31c8.76-3.25,16,.85,21.65,8.44q7.25-4.16,14.43-8.28c5.33-3,7-2.77,11.23,1.67,3,3.17,5.46,3.47,9.84.92C194.59,16,208.26,9.71,222.92,5.78,240.32,1.1,258-1.17,276,.6c9.31.91,18.54,2.66,27.81,4,3.84.54,7.08,2,7.52,6.23s-2.83,6-6.23,7.54c-20.79,9.63-41.72,19-62.23,29.21-12.35,6.15-24,13.6-36,20.53-4.36,2.52-5.08,4.67-3.57,9.5,1.42,4.55.66,6.82-3.42,9.26-5,3-10.08,5.84-15.55,9l47.78,82.83c1.93-1.1,3.72-2.19,5.58-3.14,12.58-6.41,25.68.08,28.35,13.92a3.9,3.9,0,0,0,2.32,2.64c12.29,1.82,20.26,15.28,14.53,27.17a2.21,2.21,0,0,0,0,.78c8.16,6,11.09,13.76,7.66,23.63a3.16,3.16,0,0,0,.89,2.8c10.92,7.94,10.15,24-.91,31.42-.2.13-.3.4-.58.81.67,1.22,1.37,2.55,2.12,3.85q15.8,27.33,31.59,54.67c6.92,12,4.16,22.32-7.79,29.32-2.63,1.54-5.24,3.09-7.9,4.58-11.13,6.24-21.85,3.4-28.3-7.63-8.18-14-16.24-28.11-24.35-42.16-3.23-5.6-6.47-11.18-9.91-17.14-2.55,1.19-4.9,2.79-7.48,3.39-7.62,1.79-15.35,3.06-23,4.79-5.76,1.3-11.95,2-17,4.71-15.89,8.42-31.34,17.67-47.35,26.82l5.11,9c3.36,5.92,2.63,8.78-3.17,12.13q-19.92,11.52-39.85,23c-1.05.61-2,1.43-3,2.14Zm39-57.36c14.48-8.36,28.54-16.44,42.56-24.61a61.88,61.88,0,0,1,28-8.82c7.51-.41,14.95-1.41,21.62-5.2q23.14-13.17,46.15-26.55c3.76-2.18,4.78-5.86,2.9-9-1.76-3-5.39-3.74-9-1.91-.9.45-1.76,1-2.64,1.51-6.15,3.54-12.27,7.14-18.47,10.6-2.63,1.47-5.7,1.83-7.69-.58a8.67,8.67,0,0,1-1.85-6.43c.4-1.85,2.57-3.68,4.4-4.79,7.59-4.61,15.34-8.93,23-13.36,5.72-3.29,7.4-6.68,5.18-10.43s-5.67-3.92-11.62-.48l-22.06,12.74a27.4,27.4,0,0,1-3,1.6c-3.37,1.4-6.63.41-8.28-2.43s-1-6.16,1.85-8.43a26,26,0,0,1,3.21-2c9.88-5.71,19.8-11.35,29.64-17.12,3.81-2.23,4.88-5.77,3-9s-5.36-3.94-9.3-1.93c-1,.52-2,1.13-3,1.7-9.56,5.51-19.09,11.06-28.69,16.49-4,2.28-7.71,1.43-9.63-1.9s-.78-6.82,3.23-9.23c5.11-3.06,10.31-6,15.46-9,3.3-1.9,6.61-3.77,9.88-5.71,4.19-2.5,5.56-6.14,3.6-9.43s-5.55-3.89-10-1.46c-.67.36-1.32.77-2,1.15q-19.6,11.31-39.22,22.6c-5.34,3.07-8.13,2.29-11.28-3-2.27-3.82-4.44-7.69-6.68-11.53-1.7-2.92-3.43-5.82-5.26-8.9-2.64,1.51-5,2.74-7.21,4.16-5.36,3.41-6.85,8.85-3.87,14.49,1.9,3.59,4,7,6.07,10.55,7.11,12.34,4.34,22.79-7.93,29.88q-24.71,14.28-49.4,28.54c-1.16.67-2.28,1.42-3.56,2.23ZM20.24,165c1.45-1,2.1-1.4,2.7-1.86,24-18.29,50.29-32.86,76.37-47.79,6.69-3.83,13.63-3.76,20.17.44,1.9,1.21,3.12.84,4.77-.11q31.42-18.21,62.92-36.29a4.22,4.22,0,0,0,2.48-4.48c-.32-7.34,2.74-13.3,9.07-16.86q31.65-17.79,63.59-35c6.05-3.27,12.5-5.82,19.64-9.1-12.15,0-23.36-.92-34.37.2-20.79,2.1-40.22,9.07-58.13,19.89-8.58,5.18-16.81,5.94-25.27-.25Q130.9,52.95,97.7,72.19a3.08,3.08,0,0,0-1.41,2.29c.66,9.56-4,15.71-12.05,20.19a147.78,147.78,0,0,0-38.57,30.64A145.59,145.59,0,0,0,20.24,165ZM91.46,267.49l-33,19.09,51,88.37,33.05-19.09Zm129.48-82.34c-16-27.69-31.78-55.07-47.79-82.82l-22,12.69c16.07,27.83,31.91,55.28,47.85,82.87Zm35.61,112.42,6.72,11.67Q277,333,290.62,356.65c3,5.19,6.07,6,11.32,3,2.33-1.29,4.62-2.63,6.93-4,6.26-3.63,6.95-6.27,3.26-12.67q-15.87-27.48-31.75-55c-.61-1-1.3-2-2-3.14ZM134.6,35.89c-3.28-3.27-4.8-3.89-7.77-2.41a110.36,110.36,0,0,0-12.14,7c-3.1,2.07-3.36,4.75-1.29,7.72Z"/>
            <path class="cls-1"
                  d="M286.47,44.63c34.91-.27,63.72,28.26,64,63.39a63.69,63.69,0,0,1-63.66,64.39c-35.11.22-63.91-28.36-64.16-63.68C222.39,73.78,251.14,44.91,286.47,44.63Zm.22,13a50.94,50.94,0,1,0,50.9,51.1A51.15,51.15,0,0,0,286.69,57.59Z"/>
            <path class="cls-1"
                  d="M370.29,152c.14,5.95-4.44,9.17-8.87,7a100.91,100.91,0,0,1-12.1-7.05,6.25,6.25,0,0,1,6.11-10.84,111.12,111.12,0,0,1,12.41,7.22C369.22,149.26,369.86,151.28,370.29,152Z"/>
            <path class="cls-1"
                  d="M330,192.37c-.91-.7-3.06-1.72-4.25-3.41a90.91,90.91,0,0,1-6.12-10.47c-2-3.74-1-7.35,2.29-9.16s6.51-.82,8.76,2.73a112.06,112.06,0,0,1,6.19,10.86C339.12,187.57,336.09,192.47,330,192.37Z"/>
            <path class="cls-1"
                  d="M369.7,102.18c2.15,0,4.3-.1,6.44,0a6.37,6.37,0,0,1,6.27,5.9A6.11,6.11,0,0,1,377,114.8a99.34,99.34,0,0,1-14.74,0,6.07,6.07,0,0,1-5.35-6.71,6.36,6.36,0,0,1,6.32-5.87C365.41,102.08,367.56,102.18,369.7,102.18Z"/>
            <path class="cls-1"
                  d="M352.49,77.46c-1.87-1.71-4.08-3-5.26-5a5,5,0,0,1,1.51-6.82,77.81,77.81,0,0,1,13.54-7.54c1.7-.69,5.14.52,6.48,2s1.73,5.08.74,6.46C365.53,72.14,359,74,352.49,77.46Z"/>
            <path class="cls-1"
                  d="M337.61,31.84a7.61,7.61,0,0,1-.57,2.09c-2.2,4-4.33,8-6.81,11.78a5.94,5.94,0,0,1-8.62,1.84,6.21,6.21,0,0,1-2.28-8.26c2.11-4,4.39-7.95,6.87-11.74a5.74,5.74,0,0,1,7.31-2.31C336.33,26.28,337.63,28.41,337.61,31.84Z"/>
            <path class="cls-1"
                  d="M124,348.72c-2.06,2.44-3.25,4.77-5.16,5.9a5.19,5.19,0,0,1-7.13-1.55,125.38,125.38,0,0,1-7.7-13.41,4.92,4.92,0,0,1,2.37-6.81c2-.9,5.93-1.34,6.84-.22C117.15,337.43,120.25,342.88,124,348.72Z"/>
            <path class="cls-1"
                  d="M280.09,76.18c.68-5-1.45-12.21,6.72-12,7.68.15,5.95,7,6.57,12,3,.24,5.84.35,8.68.74a18.68,18.68,0,0,1,15.13,25.43c-.83,2.13-.52,3.24,1.16,4.75,6.13,5.52,8.16,12.42,5.54,20.28s-8.27,12.31-16.57,12.91c-4.52.32-9.08.06-13.73.06-1,5.43,1.1,12.86-7.19,12.65-7.82-.19-5.67-7.15-6.27-12.42H264.46c-6.57,0-9.76-2.12-9.79-6.43s3.16-6.44,9.71-6.58c.88,0,1.75-.12,2.84-.19V89.65c-1.92-.09-3.88-.12-5.84-.28-4-.31-6.71-2.88-6.71-6.35s2.64-6.23,6.7-6.44c5.19-.28,10.4-.09,15.6-.13C278,76.44,278.92,76.28,280.09,76.18Zm.39,51.37c8.5,0,16.62.08,24.73,0,4.2-.06,6.77-2.53,6.81-6.11s-2.72-6.28-7-6.34c-6.73-.08-13.45,0-20.18,0h-4.32Zm0-25.39c3.44,0,6.71,0,10,0a89.55,89.55,0,0,0,9.13-.13c3.33-.35,5.7-2.15,5.94-5.81.21-3.2-1.29-6-4.36-6.18-6.86-.45-13.78-.14-20.69-.14Z"/>
        </g>
    </g>
</svg>
