<?xml version="1.0" standalone="no"?>
<!DOCTYPE svg PUBLIC "-//W3C//DTD SVG 20010904//EN"
        "http://www.w3.org/TR/2001/REC-SVG-20010904/DTD/svg10.dtd">
<svg version="1.0" xmlns="http://www.w3.org/2000/svg"
     height="100%" viewBox="0 0 383.25 336.84"
     preserveAspectRatio="xMidYMid meet">
    <defs>
        <style>.cls-1{fill:var(--prod-menu-icon);}</style>
    </defs>
    <g id="Layer_2" data-name="Layer 2">
        <g id="Layer_1-2" data-name="Layer 1">
            <path class="cls-1"
                  d="M383.25,28.45v280a16.82,16.82,0,0,0-.76,2.05,33.49,33.49,0,0,1-32.89,26.36q-146.88,0-293.75,0a32.93,32.93,0,0,1-32.59-27c-1.05-6-.62-12.16-.77-18.26-.1-3.55,0-7.12,0-10.84-4,0-7.52,0-11,0C4.68,280.59,0,275.94,0,269.08Q0,235.77,0,202.47C0,195.62,4.69,191,11.5,190.9c3.57,0,7.14,0,10.7,0V146c-3.75,0-7.23,0-10.71,0C4.69,145.85,0,141.21,0,134.36Q0,101.06,0,67.75c0-6.86,4.65-11.5,11.45-11.59,3.57,0,7.14,0,11,0,0-7.91,0-15.37,0-22.83A33.44,33.44,0,0,1,55.85,0Q202.91,0,350,.07c13.38,0,23.25,6.59,29.51,18.32C381.17,21.52,382,25.08,383.25,28.45ZM22.62,123.52c3.74,0,7.21,0,10.68,0,6.86.08,11.57,4.66,11.58,11.46q.06,33.49,0,67c0,6.6-4.74,11.24-11.33,11.34-3.58.05-7.17,0-10.89,0v44.94h9.5c8.36,0,12.72,4.32,12.73,12.57,0,10.23,0,20.46,0,30.68,0,8.34,4.6,12.88,13,12.88h290c8.34,0,12.89-4.61,12.89-13q0-133,0-266c0-8.35-4.59-12.88-13-12.88H57.8c-8.36,0-12.88,4.59-12.9,13,0,10.6.05,21.21,0,31.81-.05,6.58-4.75,11.21-11.35,11.31-3.58.06-7.17,0-10.91,0Z"/>
            <path class="cls-1"
                  d="M249.6,137c10.75,17.36,14,39.65.36,62.58l20.33,20.29q14.55,14.55,29.1,29.11c5.52,5.54,6,12.43,1.3,17.21s-11.7,4.34-17.2-1.14q-23.3-23.27-46.56-46.57c-1-1-1.84-2-2.84-3.12-20.83,12.34-41.47,12.41-62.42,0-3.91,4-7.79,8-11.74,12-12.77,12.8-25.52,25.62-38.38,38.34-6.65,6.57-16.53,4.4-19.22-4.12-1.51-4.8.12-8.74,3.57-12.18q23.44-23.37,46.84-46.81c1-1,2-1.87,3.16-2.95-12.3-20.7-12.42-41.33-.12-62.14-.9-.95-1.81-1.94-2.76-2.89Q129.35,110.9,105.68,87.2C99,80.46,101.25,70.32,110,67.81c4.82-1.39,8.71.38,12.14,3.83q23.35,23.46,46.8,46.86a27.44,27.44,0,0,1,2.41,3.21c21.16-12.52,41.69-12.61,62.48-.38.91-.85,1.9-1.73,2.85-2.67Q260.32,95,284,71.32c6.77-6.73,16.81-4.58,19.43,4.12,1.44,4.81-.29,8.73-3.73,12.15Q276.26,111,252.85,134.4A36.55,36.55,0,0,1,249.6,137ZM236.53,168.4a33.68,33.68,0,1,0-33.85,33.7A34,34,0,0,0,236.53,168.4Z"/>
            <path class="cls-1"
                  d="M337.57,168.63c0,7.22,0,14.44,0,21.66,0,6.93-4.72,11.81-11.23,11.8s-11.17-4.89-11.18-11.84q0-21.85,0-43.7c0-6.93,4.7-11.8,11.22-11.79s11.15,4.88,11.19,11.83C337.6,153.93,337.57,161.28,337.57,168.63Z"/>
        </g>
    </g>
</svg>