<svg id="Layer_1" data-name="Layer 1" xmlns="http://www.w3.org/2000/svg" viewBox="0 0 600 600">
    <defs>
        <style>.cls-1{fill:none;stroke:#0d1b32;stroke-linecap:round;stroke-linejoin:round;stroke-width:20px}</style>
    </defs>
    <path class="cls-1" d="M40 212.2l28.5 47.3 46.5-27"/>
    <path class="cls-1" d="M68.4 259.6a237.6 237.6 0 1 1 234.1 277.9 237.4 237.4 0 0 1-207-121"/>
    <path class="cls-1"
          d="M436.6 332.7l-28.5 15-127-71.1A217.8 217.8 0 0 1 194 171l139.2 80.3a1.3 1.3 0 0 1 .4.1l102.9 56a14.3 14.3 0 0 1 0 25.2zM321.4 395.8l-76 43.9a9 9 0 0 1-13.2-7 104.7 104.7 0 0 1 6-44.5 102.7 102.7 0 0 1 47.5-54.2l37.2 21.8c14.9 8.6 11.8 32.2-1.5 40z"/>
    <path class="cls-1" d="M323 355.9l-30-17.2-2-1.2z"/>
    <path class="cls-1"
          d="M408 347.8L345.3 382l-.4.2-23.4 13.6c13.3-7.8 16.4-31.5 1.5-40l-31.8-18.4-.2-.1a2.9 2.9 0 0 1-.6-.4A202.2 202.2 0 0 1 194 171.2a217.8 217.8 0 0 0 87 105.4z"/>
</svg>