<?xml version="1.0" standalone="no"?>
<!DOCTYPE svg PUBLIC "-//W3C//DTD SVG 20010904//EN"
 "http://www.w3.org/TR/2001/REC-SVG-20010904/DTD/svg10.dtd">
<svg version="1.0" xmlns="http://www.w3.org/2000/svg"
 width="92.000000pt" height="92.000000pt" viewBox="0 0 92.000000 92.000000"
 preserveAspectRatio="xMidYMid meet">

<g transform="translate(0.000000,92.000000) scale(0.100000,-0.100000)"
fill="#000000" stroke="none">
<path d="M86 858 c-12 -16 -16 -47 -16 -115 0 -112 8 -123 85 -123 51 0 57 -3
117 -55 34 -30 68 -55 75 -55 7 0 13 20 15 52 2 44 7 53 23 56 41 8 45 20 45
133 0 97 -2 109 -19 119 -11 5 -84 10 -165 10 -138 0 -146 -1 -160 -22z m304
-108 c0 -89 0 -90 -24 -90 -30 0 -41 -16 -37 -52 1 -16 -1 -28 -4 -28 -4 0
-30 18 -57 40 -45 35 -57 40 -104 40 l-54 0 0 83 c0 46 3 87 7 90 3 4 66 7
140 7 l133 0 0 -90z"/>
<path d="M290 793 c0 -5 -12 -21 -26 -37 -24 -27 -26 -27 -44 -11 -32 29 -45
6 -14 -26 15 -16 31 -29 35 -29 10 0 79 89 79 101 0 11 -30 12 -30 2z"/>
<path d="M603 792 c-12 -2 -34 -17 -48 -33 -33 -40 -33 -88 -1 -126 20 -23 32
-28 71 -28 39 0 51 5 71 28 60 70 0 174 -93 159z m65 -55 c17 -13 15 -57 -5
-79 -46 -51 -123 20 -80 74 21 28 53 29 85 5z"/>
<path d="M484 546 c-30 -30 -34 -40 -34 -85 l0 -51 -194 0 c-107 0 -201 -3
-210 -6 -12 -4 -16 -20 -16 -56 0 -41 3 -51 20 -55 18 -5 20 -15 22 -137 l3
-131 385 0 385 0 3 129 c2 119 4 128 23 133 17 5 20 13 17 62 l-3 56 -42 3
-43 3 0 51 c0 44 -4 54 -34 84 l-34 34 -107 0 -107 0 -34 -34z m256 -26 c14
-14 20 -33 20 -65 0 -52 -17 -61 -22 -12 -2 20 -8 32 -18 32 -10 0 -16 -12
-18 -32 l-3 -33 -75 0 -74 0 0 29 c0 17 -5 33 -11 37 -14 8 -29 -14 -29 -43 0
-13 -4 -23 -10 -23 -5 0 -10 20 -10 45 0 72 20 85 135 85 82 0 98 -3 115 -20z
m113 -156 c3 -3 3 -12 0 -20 -8 -20 -783 -21 -783 -1 0 8 3 17 7 20 8 9 767 9
776 1z m-43 -189 l0 -115 -350 0 -350 0 0 108 c0 60 3 112 7 115 3 4 161 7
350 7 l343 0 0 -115z"/>
</g>
</svg>
