<?xml version="1.0" standalone="no"?>
<!DOCTYPE svg PUBLIC "-//W3C//DTD SVG 20010904//EN"
 "http://www.w3.org/TR/2001/REC-SVG-20010904/DTD/svg10.dtd">
<svg version="1.0" xmlns="http://www.w3.org/2000/svg"
 width="92.000000pt" height="92.000000pt" viewBox="0 0 92.000000 92.000000"
 preserveAspectRatio="xMidYMid meet">

<g transform="translate(0.000000,92.000000) scale(0.100000,-0.100000)"
fill="#000000" stroke="none">
<path d="M240 665 l-215 -215 22 -22 c22 -21 23 -21 43 -3 l20 18 0 -181 0
-182 145 0 145 0 0 160 0 160 60 0 60 0 0 -160 0 -160 145 0 145 0 0 182 0
181 20 -18 c20 -18 21 -18 43 3 l22 22 -215 215 c-118 118 -217 215 -220 215
-3 0 -102 -97 -220 -215z m362 -12 l138 -138 0 -187 0 -188 -75 0 -74 0 -3
158 -3 157 -127 3 -128 3 0 -161 0 -161 -77 3 -78 3 -3 180 -2 179 142 143
c79 79 145 143 148 143 2 0 67 -62 142 -137z"/>
</g>
</svg>
