<svg id="Layer_1" xmlns="http://www.w3.org/2000/svg" viewBox="0 0 32 32"><style>.st1{fill:#fff}</style><linearGradient id="SVGID_1_" gradientUnits="userSpaceOnUse" x1="9.1408" y1="4.1195" x2="22.4233" y2="27.1255"><stop offset="0" stop-color="#1b65b0"/><stop offset="1" stop-color="#05215b"/></linearGradient><circle cx="16" cy="16" r="16" fill-rule="evenodd" clip-rule="evenodd" fill="url(#SVGID_1_)"/><path id="Shape" class="st1" d="M27.2 22.4V9.6L16 3.2 4.8 9.6v12.8L16 28.8l11.2-6.4zm-21.5-.6V10.1L16 4.3l10.2 5.8v11.7L16 27.7 5.7 21.8z"/><path class="st1" d="M20.3 8.7h-8.7l-1 4.7h10.8zM13.3 16.5l-2.6-1.7-3 2.2 4.1 6.9h1.6l1.9-1.8v-.9l-2-1.8zM21.6 14.8L19 16.5v2.9l-2 1.9v.8l1.9 1.8h1.6l4.1-6.9z"/><path class="st1" d="M13.2 14l1 2.4-.3 2.8h4.5l-.3-2.8 1-2.4z"/></svg>