<svg data-name="Layer 1" xmlns="http://www.w3.org/2000/svg" viewBox="0 0 32 32"><path d="M16 32a16 16 0 1 1 16-16 16 16 0 0 1-16 16zm0-31a15 15 0 1 0 15 15A15 15 0 0 0 16 1z" data-name="Ellipse 30"/><path d="M16 24.47h-.24a2.59 2.59 0 0 1-2.34-2.34.51.51 0 0 1 .46-.54.5.5 0 0 1 .54.45 1.59 1.59 0 0 0 3.16 0 .52.52 0 0 1 .54-.45.51.51 0 0 1 .46.54A2.6 2.6 0 0 1 16 24.47z" data-name="Path 46"/><path d="M9.47 22.58h-.18a2 2 0 0 1-1.78-2.13 2 2 0 0 1 2.12-1.79h12.75a1.82 1.82 0 0 1 .33 0 2 2 0 0 1-.35 3.92H9.47zm0-2.93a1 1 0 0 0-1 .89 1 1 0 0 0 .86 1 .47.47 0 0 0 .17 0h12.9a1 1 0 0 0 .75-.22 1 1 0 0 0 .35-.66 1 1 0 0 0-.88-1.05H9.5z" data-name="Path 47"/><path d="M22.41 19.69H9.62v-1c.14 0 .39 0 .39-.64v-2.94a5.63 5.63 0 0 1 4-5.25 1.71 1.71 0 0 1 0-.39 2.06 2.06 0 0 1 4.1-.05 2.12 2.12 0 0 1 0 .44 5.6 5.6 0 0 1 4 5.24V18c0 .66.25.67.45.68zm-11.48-1h10.15A2.24 2.24 0 0 1 21 18v-2.9a4.63 4.63 0 0 0-3.75-4.42l-.72-.14.4-.62a.74.74 0 0 0 .13-.45 1.07 1.07 0 0 0-1.16-.9 1.08 1.08 0 0 0-1 .95.77.77 0 0 0 .14.4l.4.62-.72.14A4.63 4.63 0 0 0 11 15.13v2.92a2.43 2.43 0 0 1-.07.64z" data-name="Path 48"/></svg>