<svg  xmlns="http://www.w3.org/2000/svg" viewBox="0 0 606.877 606.877" width="606.877" height="606.877">
            <path  d="M58.64 280.154h162.654c32.058 0 58.14-26.082 58.14-58.14V59.36c0-32.059-26.082-58.14-58.14-58.14H58.64C26.582 1.22.5 27.301.5 59.36v162.654c0 32.058 26.082 58.14 58.14 58.14zM43.34 59.36c0-8.45 6.85-15.3 15.3-15.3h162.654c8.45 0 15.3 6.85 15.3 15.3v162.654c0 8.45-6.85 15.3-15.3 15.3H58.64c-8.45 0-15.3-6.85-15.3-15.3V59.36z"></path>
            <path  d="M221.294 280.654H58.64c-32.334 0-58.64-26.306-58.64-58.64V59.36C0 27.025 26.306.72 58.64.72h162.654c32.334 0 58.64 26.306 58.64 58.64v162.654c0 32.334-26.306 58.64-58.64 58.64zM58.64 1.72C26.857 1.72 1 27.577 1 59.36v162.654c0 31.783 25.857 57.64 57.64 57.64h162.654c31.783 0 57.64-25.857 57.64-57.64V59.36c0-31.783-25.857-57.64-57.64-57.64H58.64zm162.654 236.093H58.64c-8.712 0-15.8-7.088-15.8-15.8V59.36c0-8.712 7.088-15.8 15.8-15.8h162.654c8.712 0 15.8 7.088 15.8 15.8v162.654c0 8.712-7.088 15.799-15.8 15.799zM58.64 44.56c-8.161 0-14.8 6.639-14.8 14.8v162.654c0 8.161 6.639 14.8 14.8 14.8h162.654c8.161 0 14.8-6.639 14.8-14.8V59.36c0-8.161-6.639-14.8-14.8-14.8H58.64zM548.238 1.22H385.584c-32.059 0-58.141 26.082-58.141 58.14v162.654c0 32.058 26.082 58.14 58.141 58.14h162.654c32.059 0 58.139-26.082 58.139-58.14V59.36c0-32.059-26.08-58.14-58.139-58.14zm15.299 220.794c0 8.45-6.85 15.3-15.299 15.3H385.584c-8.449 0-15.301-6.85-15.301-15.3V59.36c0-8.45 6.852-15.3 15.301-15.3h162.654c8.449 0 15.299 6.85 15.299 15.3v162.654z"></path>
            <path  d="M548.238 280.654H385.584c-32.335 0-58.641-26.306-58.641-58.64V59.36c0-32.334 26.306-58.64 58.641-58.64h162.654c32.333 0 58.639 26.306 58.639 58.64v162.654c0 32.334-26.306 58.64-58.639 58.64zM385.584 1.72c-31.783 0-57.641 25.857-57.641 57.64v162.654c0 31.783 25.857 57.64 57.641 57.64h162.654c31.782 0 57.639-25.857 57.639-57.64V59.36c0-31.783-25.856-57.64-57.639-57.64H385.584zm162.654 236.093H385.584c-8.713 0-15.801-7.088-15.801-15.8V59.36c0-8.712 7.088-15.8 15.801-15.8h162.654c8.712 0 15.799 7.088 15.799 15.8v162.654c0 8.712-7.087 15.799-15.799 15.799zM385.584 44.56c-8.161 0-14.801 6.639-14.801 14.8v162.654c0 8.161 6.64 14.8 14.801 14.8h162.654c8.16 0 14.799-6.639 14.799-14.8V59.36c0-8.161-6.639-14.8-14.799-14.8H385.584zM58.64 605.657h162.654c32.058 0 58.14-26.08 58.14-58.139V384.864c0-32.059-26.082-58.141-58.14-58.141H58.64C26.582 326.723.5 352.805.5 384.864v162.654c0 32.059 26.082 58.139 58.14 58.139zm-15.3-220.793c0-8.449 6.85-15.301 15.3-15.301h162.654c8.45 0 15.3 6.852 15.3 15.301v162.654c0 8.449-6.85 15.299-15.3 15.299H58.64c-8.45 0-15.3-6.85-15.3-15.299V384.864z"></path>
            <path  d="M221.294 606.157H58.64C26.306 606.157 0 579.852 0 547.519V384.864c0-32.335 26.306-58.641 58.64-58.641h162.654c32.334 0 58.64 26.306 58.64 58.641v162.654c0 32.334-26.306 58.639-58.64 58.639zM58.64 327.224c-31.783 0-57.64 25.857-57.64 57.64v162.654c0 31.782 25.857 57.639 57.64 57.639h162.654c31.783 0 57.64-25.856 57.64-57.639V384.864c0-31.783-25.857-57.641-57.64-57.641H58.64zm162.654 236.093H58.64c-8.712 0-15.8-7.087-15.8-15.799V384.864c0-8.713 7.088-15.801 15.8-15.801h162.654c8.712 0 15.8 7.088 15.8 15.801v162.654c0 8.712-7.088 15.799-15.8 15.799zM58.64 370.063c-8.161 0-14.8 6.64-14.8 14.801v162.654c0 8.16 6.639 14.799 14.8 14.799h162.654c8.161 0 14.8-6.639 14.8-14.799V384.864c0-8.161-6.639-14.801-14.8-14.801H58.64zM548.238 326.724H385.584c-32.059 0-58.141 26.082-58.141 58.141v162.654c0 32.059 26.082 58.139 58.141 58.139h162.654c32.059 0 58.139-26.08 58.139-58.139V384.864c0-32.058-26.08-58.14-58.139-58.14zm15.299 220.795c0 8.449-6.85 15.299-15.299 15.299H385.584c-8.449 0-15.301-6.85-15.301-15.299V384.864c0-8.449 6.852-15.301 15.301-15.301h162.654c8.449 0 15.299 6.852 15.299 15.301v162.655z"></path>
            <path  d="M548.238 606.157H385.584c-32.335 0-58.641-26.306-58.641-58.639V384.864c0-32.335 26.306-58.641 58.641-58.641h162.654c32.333 0 58.639 26.306 58.639 58.641v162.654c0 32.334-26.306 58.639-58.639 58.639zM385.584 327.224c-31.783 0-57.641 25.857-57.641 57.641v162.654c0 31.782 25.857 57.639 57.641 57.639h162.654c31.782 0 57.639-25.856 57.639-57.639V384.864c0-31.783-25.856-57.641-57.639-57.641H385.584zm162.654 236.093H385.584c-8.713 0-15.801-7.087-15.801-15.799V384.864c0-8.713 7.088-15.801 15.801-15.801h162.654c8.712 0 15.799 7.088 15.799 15.801v162.654c0 8.712-7.087 15.799-15.799 15.799zM385.584 370.063c-8.161 0-14.801 6.64-14.801 14.801v162.654c0 8.16 6.64 14.799 14.801 14.799h162.654c8.16 0 14.799-6.639 14.799-14.799V384.864c0-8.161-6.639-14.801-14.799-14.801H385.584z"></path>
          </svg>