<?xml version="1.0" encoding="utf-8"?>
<!-- Generator: Adobe Illustrator 21.1.0, SVG Export Plug-In . SVG Version: 6.00 Build 0)  -->
<svg version="1.1" id="Layer_1" xmlns="http://www.w3.org/2000/svg" xmlns:xlink="http://www.w3.org/1999/xlink" x="0px" y="0px"
	 viewBox="0 0 32 32" style="enable-background:new 0 0 32 32;" xml:space="preserve">
<style type="text/css">
	.st0{fill:url(#SVGID_1_);}
	.st1{fill:#FFFFFF;}
</style>
<g>
	<linearGradient id="SVGID_1_" gradientUnits="userSpaceOnUse" x1="0" y1="16" x2="32" y2="16">
		<stop  offset="0" style="stop-color:#EE3807"/>
		<stop  offset="0.1437" style="stop-color:#F24904"/>
		<stop  offset="0.3736" style="stop-color:#F65E01"/>
		<stop  offset="0.5237" style="stop-color:#F86600"/>
		<stop  offset="0.8367" style="stop-color:#FC7C00"/>
		<stop  offset="1" style="stop-color:#FF8A00"/>
	</linearGradient>
	<circle class="st0" cx="16" cy="16" r="16"/>
</g>
<path class="st1" d="M22.1,11.6H21c-0.1-1.2-0.5-2.4-1.3-3.3h2.4c0.5,0,0.9-0.4,0.9-0.9s-0.4-0.9-0.9-0.9l-6.5,0.1h-3.7h-2
	C9.4,6.6,9,7,9,7.5s0.4,0.9,0.9,0.9h2h3.7c1.9,0,3.4,1.5,3.5,3.3l-9.2,0.1C9.4,11.7,9,12,9,12.6s0.4,0.9,0.9,0.9l9.2-0.1
	c-0.2,1.7-1.7,2.9-3.4,3H12c-0.3,0-0.6,0.2-0.8,0.5s-0.1,0.7,0.1,1l6.3,9.3c0.2,0.3,0.5,0.4,0.8,0.4c0.2,0,0.4-0.1,0.5-0.1
	c0.5-0.3,0.5-0.8,0.3-1.3l-5.3-7.9h2c2.8,0,5.1-2.2,5.4-4.9h1.1c0.5,0,0.9-0.4,0.9-0.9C23.1,11.9,22.6,11.6,22.1,11.6z"/>
</svg>
