<svg id="Layer_1" xmlns="http://www.w3.org/2000/svg" viewBox="0 0 32 32"><style>.st1{fill:#fff}</style><circle cx="16" cy="16" r="16" fill="#2775ca"/><path class="st1" d="M13 27.1c0 .4-.3.6-.6.5C7.5 26 4 21.5 4 16.2c0-5.4 3.5-9.9 8.4-11.4.3-.2.6 0 .6.4v.9c0 .2-.2.5-.4.6A10.2 10.2 0 0 0 6 16.2c0 4.3 2.7 8 6.6 9.4.2.1.4.4.4.6v.9z"/><path class="st1" d="M17 23.7c0 .3-.2.5-.5.5h-1c-.3 0-.5-.2-.5-.5v-1.6c-2.2-.3-3.2-1.5-3.5-3.2-.1-.3.2-.5.5-.5h1.1c.2 0 .4.2.5.4.2 1 .8 1.8 2.5 1.8 1.3 0 2.2-.7 2.2-1.8s-.5-1.5-2.4-1.8c-2.8-.4-4.1-1.2-4.1-3.4 0-1.7 1.3-3 3.3-3.3V8.7c0-.3.2-.5.5-.5h1c.3 0 .5.2.5.5v1.6c1.6.3 2.6 1.2 3 2.7.1.3-.2.6-.5.6h-1c-.2 0-.4-.1-.5-.4-.3-1-1-1.4-2.2-1.4-1.3 0-2 .6-2 1.5s.4 1.4 2.4 1.7c2.8.4 4.2 1.2 4.2 3.5 0 1.8-1.3 3.2-3.4 3.5l-.1 1.7z"/><path class="st1" d="M19.6 27.6c-.4.1-.6-.1-.6-.5v-.9c0-.3.2-.5.4-.6 3.8-1.4 6.6-5.1 6.6-9.4 0-4.3-2.7-8-6.6-9.4-.2-.1-.4-.4-.4-.6v-1c0-.4.3-.6.6-.5 4.9 1.5 8.4 6.1 8.4 11.4 0 5.4-3.5 9.9-8.4 11.5z"/></svg>